<mxfile host="app.diagrams.net" modified="2023-07-05T03:52:22.852Z" agent="Mozilla/5.0 (X11; Linux x86_64) AppleWebKit/537.36 (KHTML, like Gecko) Chrome/114.0.0.0 Safari/537.36" version="21.5.2" etag="iq7q5Pe287GxF-dxZB2K" type="github">
  <diagram name="Page-1" id="B7oRgeH3AG1tc2Sgi9qp">
    <mxGraphModel>
      <root>
        <mxCell id="0" />
        <mxCell id="1" parent="0" />
      </root>
    </mxGraphModel>
  </diagram>
</mxfile>
